<?xml version="1.0" ?>
<!-- Uploaded to: SVG Repo, www.svgrepo.com, Generator: SVG Repo Mixer Tools -->
<svg width="800px" height="800px" viewBox="0 0 64 64" xmlns="http://www.w3.org/2000/svg">
<g id="flat">
<path d="M54.56,7.3A8.888,8.888,0,0,1,49,5.341,8.894,8.894,0,0,1,43.1,7.3a8.878,8.878,0,0,1-6.385-3.087l-.478-.557,1.518-1.3.478.558A6.786,6.786,0,0,0,43.181,5.3a6.8,6.8,0,0,0,5.112-2,1,1,0,0,1,1.414,0,6.8,6.8,0,0,0,5.112,2,6.786,6.786,0,0,0,4.944-2.389l.478-.558,1.518,1.3-.478.557A8.878,8.878,0,0,1,54.9,7.3C54.784,7.3,54.671,7.3,54.56,7.3Z" style="fill:#dd4a43"/>
<rect height="2" style="fill:#fdb62f" width="2" x="39" y="9"/>
<rect height="2" style="fill:#fd6d2f" width="2" x="42" y="2"/>
<rect height="2" style="fill:#fdb62f" width="2" x="47" y="8"/>
<rect height="2" style="fill:#fdb62f" width="2" x="55" y="2"/>
<rect height="2" style="fill:#fd6d2f" width="2" x="58" y="8"/>
<path d="M20.56,7.3A8.888,8.888,0,0,1,15,5.341,8.889,8.889,0,0,1,9.1,7.3,8.878,8.878,0,0,1,2.719,4.208l-.478-.557,1.518-1.3.478.558A6.786,6.786,0,0,0,9.181,5.3a6.809,6.809,0,0,0,5.112-2,1,1,0,0,1,1.414,0,6.8,6.8,0,0,0,5.112,2,6.786,6.786,0,0,0,4.944-2.389l.478-.558,1.518,1.3-.478.557A8.878,8.878,0,0,1,20.9,7.3C20.784,7.3,20.671,7.3,20.56,7.3Z" style="fill:#dd4a43"/>
<rect height="2" style="fill:#fdb62f" width="2" x="5" y="9"/>
<rect height="2" style="fill:#fdb62f" width="2" x="8" y="2"/>
<rect height="2" style="fill:#fd6d2f" width="2" x="13" y="8"/>
<rect height="2" style="fill:#fd6d2f" width="2" x="19" y="2"/>
<rect height="2" style="fill:#fdb62f" width="2" x="20" y="9"/>
<rect height="2" style="fill:#fdb62f" width="60" x="2" y="60"/>
<rect height="10" style="fill:#7ea82d" width="10" x="38" y="51"/>
<polygon points="48 51.5 38.5 61 48 61 48 51.5" style="fill:#729c22"/>
<rect height="10" style="fill:#dd4a43" width="2" x="43" y="51"/>
<rect height="2" style="fill:#dd4a43" width="10" x="38" y="54"/>
<rect height="6" style="fill:#7ea82d" width="8" x="18" y="55"/>
<polygon points="19.083 61 26 61 26 55 25.083 55 19.083 61" style="fill:#729c22"/>
<path d="M20.447,58.9l-.894-1.79A2.721,2.721,0,0,0,21,55h2A4.7,4.7,0,0,1,20.447,58.9Z" style="fill:#dd4a43"/>
<path d="M23.553,58.9A4.7,4.7,0,0,1,21,55h2a2.723,2.723,0,0,0,1.453,2.108Z" style="fill:#dd4a43"/>
<path d="M22,56H20a3,3,0,1,1,3-3v2A1,1,0,0,1,22,56Zm-2-4a1,1,0,0,0,0,2h1V53A1,1,0,0,0,20,52Z" style="fill:#dd4a43"/>
<path d="M24,56H22a1,1,0,0,1-1-1V53a3,3,0,1,1,3,3Zm-1-2h1a1,1,0,1,0-1-1Z" style="fill:#dd4a43"/>
<rect height="11" style="fill:#fd6d2f" width="10" x="4" y="50"/>
<polygon points="4 61 14 61 14 51 4 61" style="fill:#f7612d"/>
<rect height="2" style="fill:#dd4a43" width="10" x="4" y="53"/>
<path d="M9,51H7a3,3,0,1,1,3-3v2A1,1,0,0,1,9,51ZM7,47a1,1,0,0,0,0,2H8V48A1,1,0,0,0,7,47Z" style="fill:#dd4a43"/>
<path d="M11,51H9a1,1,0,0,1-1-1V48a3,3,0,1,1,3,3Zm-1-2h1a1,1,0,1,0-1-1Z" style="fill:#dd4a43"/>
<rect height="11" style="fill:#dd4a43" width="2" x="8" y="50"/>
<rect height="16" style="fill:#fd6d2f" width="8" x="52" y="45"/>
<polygon points="52 56.5 52 61 60 61 60 48.5 52 56.5" style="fill:#f7612d"/>
<path d="M56,46H54a3,3,0,1,1,3-3v2A1,1,0,0,1,56,46Zm-2-4a1,1,0,0,0,0,2h1V43A1,1,0,0,0,54,42Z" style="fill:#dd4a43"/>
<path d="M58,46H56a1,1,0,0,1-1-1V43a3,3,0,1,1,3,3Zm-1-2h1a1,1,0,1,0-1-1Z" style="fill:#dd4a43"/>
<rect height="2" style="fill:#dd4a43" width="8" x="52" y="48"/>
<path d="M32,7a1,1,0,0,1-.55-.165l-3.033-2,1.1-1.67L32,4.8l2.483-1.637,1.1,1.67-3.033,2A1,1,0,0,1,32,7Z" style="fill:#fdb62f"/>
<path d="M34.483,8.835,32,7.2,29.517,8.835l-1.1-1.67,3.033-2a1,1,0,0,1,1.1,0l3.033,2Z" style="fill:#fdb62f"/>
<rect height="10" style="fill:#fdb62f" width="2" x="31" y="2"/>
<polygon points="46 47 39 36 43.2 36 36.2 23 40.4 23 32 10 23.6 23 27.8 23 20.8 36 25 36 18 47 46 47" style="fill:#7ea82d"/>
<polygon points="39 36 43.2 36 41.03 31.97 26 47 46 47 39 36" style="fill:#729c22"/>
<ellipse cx="34.022" cy="40" rx="2.022" ry="2" style="fill:#dd4a43"/>
<ellipse cx="30.978" cy="28" rx="2.022" ry="2" style="fill:#dd4a43"/>
<path d="M31.823,26.188A1.97,1.97,0,0,1,32,27a2.017,2.017,0,0,1-2.867,1.812A2.024,2.024,0,0,0,33,28,2,2,0,0,0,31.823,26.188Z" style="fill:#d3433c"/>
<rect height="2" style="fill:#fdb62f" width="2" x="32.011" y="19"/>
<rect height="2" style="fill:#fd6d2f" width="2" x="34" y="32"/>
<rect height="2" style="fill:#fdb62f" width="2" x="27" y="42"/>
<rect height="14" style="fill:#a65b2d" width="4" x="30" y="47"/>
<rect height="3" style="fill:#894520" width="4" x="30" y="47"/>
<path d="M34.867,38.188a1.97,1.97,0,0,1,.177.812,2.017,2.017,0,0,1-2.867,1.812A2.024,2.024,0,0,0,36.044,40,1.994,1.994,0,0,0,34.867,38.188Z" style="fill:#d3433c"/>
</g>
</svg>